<svg xmlns="http://www.w3.org/2000/svg" xmlns:xlink="http://www.w3.org/1999/xlink" width="500" zoomAndPan="magnify" viewBox="0 0 375 374.999991" height="500" preserveAspectRatio="xMidYMid meet" version="1.0"><defs><g/><clipPath id="af2ab0989d"><path d="M 23.984375 6.183594 L 350.953125 6.183594 L 350.953125 369 L 23.984375 369 Z M 23.984375 6.183594 " clip-rule="nonzero"/></clipPath><clipPath id="39b1132001"><path d="M 75 158.4375 L 298.335938 158.4375 L 298.335938 331.898438 L 75 331.898438 Z M 75 158.4375 " clip-rule="nonzero"/></clipPath><clipPath id="8e3a41ead8"><path d="M 65.941406 65.972656 L 307.535156 65.972656 L 307.535156 175.050781 L 65.941406 175.050781 Z M 65.941406 65.972656 " clip-rule="nonzero"/></clipPath><clipPath id="76340c7ebb"><path d="M 186.667969 65.972656 L 307.394531 175.050781 L 65.941406 175.050781 Z M 186.667969 65.972656 " clip-rule="nonzero"/></clipPath><clipPath id="693ddea7fd"><path d="M 107.96875 129 L 262.46875 129 L 262.46875 287 L 107.96875 287 Z M 107.96875 129 " clip-rule="nonzero"/></clipPath></defs><g clip-path="url(#af2ab0989d)"><path fill="#608bc1" d="M 190.105469 8.371094 L 351.035156 131.242188 L 351.035156 368.726562 L 23.953125 368.726562 L 23.953125 131.242188 C 78.613281 89.5625 132.761719 47.949219 187.496094 6.269531 Z M 322.328125 334.363281 L 342.117188 354.15625 L 342.117188 140.085938 L 322.328125 149.945312 Z M 336.390625 360.390625 L 316.09375 340.089844 L 191.625 340.089844 L 191.625 360.390625 Z M 58.820312 340.089844 L 38.523438 360.390625 L 183.289062 360.390625 L 183.289062 291.667969 C 180.171875 291.667969 176.546875 290.652344 173.429688 289.566406 C 168.71875 287.96875 164.585938 284.851562 160.382812 281.226562 C 156.757812 277.605469 153.640625 272.890625 152.046875 268.179688 C 150.449219 263.46875 149.945312 258.320312 150.449219 253.609375 L 150.957031 251 L 154.074219 250.492188 C 158.789062 249.476562 163.425781 249.984375 168.644531 252.085938 C 173.359375 253.679688 177.492188 256.21875 181.113281 260.421875 C 182.128906 260.929688 182.710938 261.4375 183.21875 262.019531 L 183.21875 226.570312 C 176.476562 227.078125 169.660156 226.0625 162.917969 223.453125 C 154.582031 220.335938 147.261719 215.625 140.519531 208.882812 C 133.777344 202.140625 129.066406 194.3125 125.949219 186.480469 C 122.832031 178.144531 121.816406 169.808594 123.339844 161.980469 L 123.847656 158.863281 L 126.457031 158.355469 C 133.199219 157.339844 140.011719 157.847656 146.753906 159.371094 C 150.886719 160.386719 155.089844 162.488281 159.222656 164.589844 C 159.730469 155.238281 162.339844 145.8125 165.964844 138.058594 C 170.675781 128.707031 176.910156 120.371094 184.738281 114.644531 L 187.347656 112.539062 L 189.957031 114.644531 C 197.789062 120.371094 204.023438 128.707031 208.734375 138.058594 C 212.359375 145.886719 214.96875 155.238281 215.476562 164.589844 C 219.609375 162.488281 223.8125 160.457031 227.945312 159.371094 C 234.6875 157.773438 241.5 157.269531 248.242188 158.355469 L 250.851562 158.863281 L 251.359375 161.980469 C 252.953125 169.808594 251.867188 178.144531 248.75 186.480469 C 245.632812 194.3125 240.921875 202.140625 234.179688 208.882812 C 227.4375 215.625 220.117188 220.335938 211.777344 223.453125 C 205.039062 226.0625 198.222656 227.078125 191.480469 226.570312 L 191.480469 262.019531 C 191.988281 261.511719 192.496094 261.003906 193.074219 260.421875 C 197.207031 256.292969 201.414062 253.679688 206.125 252.085938 C 211.34375 249.984375 215.984375 249.476562 220.695312 250.492188 L 223.8125 251 L 224.320312 253.609375 C 224.828125 258.320312 224.320312 263.46875 222.726562 268.179688 C 221.128906 272.890625 218.011719 277.53125 214.386719 281.226562 C 210.257812 284.851562 206.050781 287.96875 201.339844 289.566406 C 198.222656 290.578125 194.597656 291.667969 191.480469 291.667969 L 191.480469 331.753906 L 313.339844 331.753906 L 313.339844 149.511719 L 187.496094 53.167969 L 61.429688 149.511719 L 61.429688 331.753906 L 174.445312 331.753906 L 174.445312 340.089844 Z M 32.796875 354.15625 L 52.585938 334.363281 L 52.585938 150.019531 L 32.796875 140.160156 Z M 183.289062 45.339844 L 183.289062 20.332031 L 36.421875 132.839844 L 56.210938 142.695312 Z M 191.625 20.332031 L 191.625 45.339844 L 318.703125 142.695312 L 338.496094 132.839844 Z M 158.859375 258.320312 C 158.859375 260.929688 159.367188 263.03125 160.453125 265.644531 C 161.46875 268.761719 163.570312 272.382812 166.6875 274.992188 C 169.300781 278.109375 172.921875 280.214844 176.546875 281.734375 C 178.648438 282.242188 180.679688 282.75 183.289062 282.75 C 183.289062 280.648438 182.78125 278.039062 181.695312 276.007812 C 180.679688 272.382812 178.578125 269.265625 175.460938 266.148438 C 172.34375 263.539062 169.226562 260.929688 165.601562 259.914062 C 163.5 258.828125 160.890625 258.320312 158.859375 258.320312 Z M 214.535156 265.644531 C 215.546875 263.03125 216.128906 260.929688 216.128906 258.320312 C 214.027344 258.320312 211.417969 258.828125 209.386719 259.914062 C 205.761719 260.929688 202.644531 263.539062 199.527344 266.148438 C 196.410156 269.265625 194.308594 272.382812 193.292969 276.007812 C 192.277344 278.109375 191.699219 280.722656 191.699219 282.75 C 194.308594 282.75 196.410156 282.242188 198.441406 281.734375 C 202.066406 280.140625 205.761719 278.109375 208.300781 274.992188 C 211.417969 272.382812 213.519531 268.761719 214.535156 265.644531 Z M 131.242188 166.113281 C 130.734375 171.839844 131.75 177.566406 133.851562 183.800781 C 136.460938 190.542969 140.59375 196.847656 146.320312 203.082031 C 152.046875 208.808594 158.789062 212.941406 165.601562 215.550781 C 169.226562 216.566406 173.429688 217.652344 177.054688 218.160156 C 172.34375 213.449219 168.71875 207.722656 166.109375 201.488281 C 162.484375 193.660156 159.875 184.308594 159.367188 174.375 C 154.65625 171.257812 149.507812 169.15625 144.796875 167.632812 C 140.085938 166.691406 135.371094 166.113281 131.242188 166.113281 Z M 172.921875 196.339844 C 173.429688 197.355469 173.9375 197.933594 173.9375 198.949219 L 174.445312 198.949219 L 174.445312 199.457031 C 177.5625 206.199219 182.273438 211.925781 187.496094 216.636719 C 192.207031 212.507812 196.339844 207.285156 199.457031 201.558594 L 199.457031 201.050781 L 199.960938 201.050781 L 199.960938 200.039062 L 200.46875 200.039062 C 200.46875 199.53125 200.46875 199.023438 200.976562 199.023438 C 201.484375 197.429688 201.992188 195.90625 202.574219 194.890625 L 202.574219 194.382812 L 203.078125 193.875 C 205.691406 186.554688 207.210938 178.796875 207.210938 169.953125 C 207.210938 159.515625 205.109375 150.164062 200.976562 141.828125 C 197.859375 134.503906 193.148438 128.269531 187.421875 123.632812 C 181.695312 128.34375 176.984375 134.578125 173.867188 141.828125 C 169.734375 150.164062 167.632812 159.515625 167.632812 169.953125 C 167.632812 178.796875 169.226562 187.640625 172.34375 194.964844 L 172.34375 195.472656 L 172.851562 195.976562 L 172.851562 196.339844 Z M 241.136719 183.871094 C 243.238281 177.636719 244.253906 171.910156 243.746094 166.183594 C 239.617188 166.183594 234.902344 166.691406 230.191406 167.777344 C 225.480469 169.375 220.332031 171.402344 215.621094 174.519531 C 215.113281 184.378906 212.503906 193.804688 208.878906 201.632812 C 206.269531 207.867188 202.644531 213.59375 197.933594 218.304688 C 201.558594 217.796875 205.761719 216.710938 209.386719 215.695312 C 216.128906 213.085938 222.941406 208.953125 228.667969 203.226562 C 234.324219 196.847656 238.527344 190.613281 241.136719 183.871094 Z M 241.136719 183.871094 " fill-opacity="1" fill-rule="nonzero"/></g><g clip-path="url(#39b1132001)"><path fill="#ffffff" d="M 75 158.4375 L 298.601562 158.4375 L 298.601562 331.898438 L 75 331.898438 Z M 75 158.4375 " fill-opacity="1" fill-rule="nonzero"/></g><g clip-path="url(#8e3a41ead8)"><g clip-path="url(#76340c7ebb)"><path fill="#ffffff" d="M 65.941406 65.972656 L 307.535156 65.972656 L 307.535156 175.050781 L 65.941406 175.050781 Z M 65.941406 65.972656 " fill-opacity="1" fill-rule="nonzero"/></g></g><g clip-path="url(#693ddea7fd)"><path fill="#608bc1" d="M 169.042969 209.671875 C 176.027344 226.484375 187.039062 242.871094 201.542969 254.8125 C 214.648438 265.632812 230.660156 272.753906 249.136719 273.128906 L 249.136719 142.566406 L 214.058594 142.40625 C 210.40625 142.40625 207.453125 139.410156 207.503906 135.820312 C 207.503906 132.179688 210.457031 129.234375 214.113281 129.234375 L 255.207031 129.5 C 255.367188 129.449219 255.582031 129.449219 255.746094 129.449219 C 259.394531 129.449219 262.351562 132.394531 262.351562 136.035156 L 262.351562 279.554688 C 262.351562 283.035156 259.664062 285.929688 256.117188 286.140625 C 231.300781 287.640625 210.082031 278.96875 193.109375 264.988281 C 176.726562 251.441406 164.316406 232.964844 156.582031 214.0625 C 149.113281 213.203125 143.367188 206.9375 143.367188 199.28125 C 143.367188 191.03125 150.027344 184.339844 158.300781 184.339844 C 166.574219 184.339844 173.289062 191.03125 173.289062 199.28125 C 173.289062 203.296875 171.675781 206.992188 169.042969 209.671875 Z M 214.488281 201.316406 C 221.957031 202.171875 227.757812 208.492188 227.757812 216.152344 C 227.757812 224.394531 221.042969 231.039062 212.769531 231.039062 C 204.5 231.039062 197.785156 224.394531 197.785156 216.152344 C 197.785156 212.082031 199.449219 208.386719 202.082031 205.707031 C 195.097656 188.945312 184.085938 172.613281 169.636719 160.671875 C 156.472656 149.90625 140.410156 142.78125 121.878906 142.40625 L 121.183594 272.96875 L 157.011719 273.023438 C 160.664062 273.023438 163.617188 275.96875 163.617188 279.554688 C 163.617188 283.199219 160.664062 286.140625 157.011719 286.140625 L 114.519531 286.089844 C 110.921875 286.035156 107.96875 283.089844 107.96875 279.503906 L 108.71875 136.304688 C 108.558594 132.714844 111.296875 129.609375 114.949219 129.394531 C 139.769531 127.894531 160.984375 136.570312 178.015625 150.546875 C 194.398438 164.042969 206.753906 182.464844 214.488281 201.316406 Z M 214.488281 201.316406 " fill-opacity="1" fill-rule="nonzero"/></g><g fill="#608bc1" fill-opacity="1"><g transform="translate(107.978896, 320.303504)"><g><path d="M 20.078125 0 L 15.09375 0 L 6.78125 -12.59375 L 6.78125 0 L 1.796875 0 L 1.796875 -20.421875 L 6.78125 -20.421875 L 15.09375 -7.765625 L 15.09375 -20.421875 L 20.078125 -20.421875 Z M 20.078125 0 "/></g></g></g><g fill="#608bc1" fill-opacity="1"><g transform="translate(129.860353, 320.303504)"><g><path d="M 4.3125 -17.921875 C 3.4375 -17.921875 2.722656 -18.175781 2.171875 -18.6875 C 1.617188 -19.207031 1.34375 -19.84375 1.34375 -20.59375 C 1.34375 -21.375 1.617188 -22.019531 2.171875 -22.53125 C 2.722656 -23.039062 3.4375 -23.296875 4.3125 -23.296875 C 5.164062 -23.296875 5.867188 -23.039062 6.421875 -22.53125 C 6.972656 -22.019531 7.25 -21.375 7.25 -20.59375 C 7.25 -19.84375 6.972656 -19.207031 6.421875 -18.6875 C 5.867188 -18.175781 5.164062 -17.921875 4.3125 -17.921875 Z M 6.78125 -16.234375 L 6.78125 0 L 1.796875 0 L 1.796875 -16.234375 Z M 6.78125 -16.234375 "/></g></g></g><g fill="#608bc1" fill-opacity="1"><g transform="translate(138.444165, 320.303504)"><g><path d="M 0.8125 -8.109375 C 0.8125 -9.796875 1.15625 -11.269531 1.84375 -12.53125 C 2.53125 -13.800781 3.488281 -14.773438 4.71875 -15.453125 C 5.957031 -16.128906 7.367188 -16.46875 8.953125 -16.46875 C 10.992188 -16.46875 12.695312 -15.929688 14.0625 -14.859375 C 15.4375 -13.796875 16.335938 -12.296875 16.765625 -10.359375 L 11.46875 -10.359375 C 11.019531 -11.597656 10.15625 -12.21875 8.875 -12.21875 C 7.957031 -12.21875 7.226562 -11.863281 6.6875 -11.15625 C 6.144531 -10.445312 5.875 -9.429688 5.875 -8.109375 C 5.875 -6.796875 6.144531 -5.785156 6.6875 -5.078125 C 7.226562 -4.367188 7.957031 -4.015625 8.875 -4.015625 C 10.15625 -4.015625 11.019531 -4.632812 11.46875 -5.875 L 16.765625 -5.875 C 16.335938 -3.976562 15.429688 -2.484375 14.046875 -1.390625 C 12.671875 -0.304688 10.972656 0.234375 8.953125 0.234375 C 7.367188 0.234375 5.957031 -0.101562 4.71875 -0.78125 C 3.488281 -1.457031 2.53125 -2.425781 1.84375 -3.6875 C 1.15625 -4.957031 0.8125 -6.429688 0.8125 -8.109375 Z M 0.8125 -8.109375 "/></g></g></g><g fill="#608bc1" fill-opacity="1"><g transform="translate(156.048256, 320.303504)"><g><path d="M 17.109375 -8.375 C 17.109375 -7.914062 17.078125 -7.429688 17.015625 -6.921875 L 5.765625 -6.921875 C 5.835938 -5.910156 6.160156 -5.140625 6.734375 -4.609375 C 7.304688 -4.078125 8.007812 -3.8125 8.84375 -3.8125 C 10.082031 -3.8125 10.945312 -4.332031 11.4375 -5.375 L 16.734375 -5.375 C 16.460938 -4.3125 15.972656 -3.351562 15.265625 -2.5 C 14.554688 -1.644531 13.664062 -0.972656 12.59375 -0.484375 C 11.53125 -0.00390625 10.335938 0.234375 9.015625 0.234375 C 7.429688 0.234375 6.015625 -0.101562 4.765625 -0.78125 C 3.523438 -1.457031 2.554688 -2.425781 1.859375 -3.6875 C 1.160156 -4.957031 0.8125 -6.429688 0.8125 -8.109375 C 0.8125 -9.796875 1.15625 -11.269531 1.84375 -12.53125 C 2.53125 -13.800781 3.492188 -14.773438 4.734375 -15.453125 C 5.984375 -16.128906 7.410156 -16.46875 9.015625 -16.46875 C 10.585938 -16.46875 11.984375 -16.132812 13.203125 -15.46875 C 14.429688 -14.8125 15.390625 -13.875 16.078125 -12.65625 C 16.765625 -11.4375 17.109375 -10.007812 17.109375 -8.375 Z M 12.015625 -9.6875 C 12.015625 -10.539062 11.722656 -11.21875 11.140625 -11.71875 C 10.554688 -12.226562 9.828125 -12.484375 8.953125 -12.484375 C 8.117188 -12.484375 7.414062 -12.238281 6.84375 -11.75 C 6.28125 -11.269531 5.929688 -10.582031 5.796875 -9.6875 Z M 12.015625 -9.6875 "/></g></g></g><g fill="#608bc1" fill-opacity="1"><g transform="translate(173.972426, 320.303504)"><g/></g></g><g fill="#608bc1" fill-opacity="1"><g transform="translate(180.141134, 320.303504)"><g><path d="M 12.21875 0 L 7.96875 -7.703125 L 6.78125 -7.703125 L 6.78125 0 L 1.796875 0 L 1.796875 -20.421875 L 10.15625 -20.421875 C 11.757812 -20.421875 13.128906 -20.140625 14.265625 -19.578125 C 15.398438 -19.015625 16.25 -18.242188 16.8125 -17.265625 C 17.375 -16.285156 17.65625 -15.195312 17.65625 -14 C 17.65625 -12.632812 17.269531 -11.414062 16.5 -10.34375 C 15.738281 -9.28125 14.613281 -8.53125 13.125 -8.09375 L 17.828125 0 Z M 6.78125 -11.234375 L 9.859375 -11.234375 C 10.773438 -11.234375 11.457031 -11.453125 11.90625 -11.890625 C 12.363281 -12.335938 12.59375 -12.972656 12.59375 -13.796875 C 12.59375 -14.566406 12.363281 -15.175781 11.90625 -15.625 C 11.457031 -16.070312 10.773438 -16.296875 9.859375 -16.296875 L 6.78125 -16.296875 Z M 6.78125 -11.234375 "/></g></g></g><g fill="#608bc1" fill-opacity="1"><g transform="translate(199.112816, 320.303504)"><g><path d="M 9.1875 0.234375 C 7.601562 0.234375 6.175781 -0.101562 4.90625 -0.78125 C 3.632812 -1.457031 2.632812 -2.425781 1.90625 -3.6875 C 1.175781 -4.957031 0.8125 -6.429688 0.8125 -8.109375 C 0.8125 -9.785156 1.179688 -11.257812 1.921875 -12.53125 C 2.660156 -13.800781 3.664062 -14.773438 4.9375 -15.453125 C 6.21875 -16.128906 7.65625 -16.46875 9.25 -16.46875 C 10.84375 -16.46875 12.28125 -16.128906 13.5625 -15.453125 C 14.84375 -14.773438 15.847656 -13.800781 16.578125 -12.53125 C 17.316406 -11.257812 17.6875 -9.785156 17.6875 -8.109375 C 17.6875 -6.441406 17.3125 -4.972656 16.5625 -3.703125 C 15.820312 -2.429688 14.804688 -1.457031 13.515625 -0.78125 C 12.222656 -0.101562 10.78125 0.234375 9.1875 0.234375 Z M 9.1875 -4.078125 C 10.144531 -4.078125 10.957031 -4.425781 11.625 -5.125 C 12.289062 -5.820312 12.625 -6.816406 12.625 -8.109375 C 12.625 -9.410156 12.296875 -10.410156 11.640625 -11.109375 C 10.992188 -11.804688 10.195312 -12.15625 9.25 -12.15625 C 8.28125 -12.15625 7.472656 -11.8125 6.828125 -11.125 C 6.191406 -10.4375 5.875 -9.429688 5.875 -8.109375 C 5.875 -6.816406 6.1875 -5.820312 6.8125 -5.125 C 7.445312 -4.425781 8.238281 -4.078125 9.1875 -4.078125 Z M 9.1875 -4.078125 "/></g></g></g><g fill="#608bc1" fill-opacity="1"><g transform="translate(217.648032, 320.303504)"><g><path d="M 9.1875 0.234375 C 7.601562 0.234375 6.175781 -0.101562 4.90625 -0.78125 C 3.632812 -1.457031 2.632812 -2.425781 1.90625 -3.6875 C 1.175781 -4.957031 0.8125 -6.429688 0.8125 -8.109375 C 0.8125 -9.785156 1.179688 -11.257812 1.921875 -12.53125 C 2.660156 -13.800781 3.664062 -14.773438 4.9375 -15.453125 C 6.21875 -16.128906 7.65625 -16.46875 9.25 -16.46875 C 10.84375 -16.46875 12.28125 -16.128906 13.5625 -15.453125 C 14.84375 -14.773438 15.847656 -13.800781 16.578125 -12.53125 C 17.316406 -11.257812 17.6875 -9.785156 17.6875 -8.109375 C 17.6875 -6.441406 17.3125 -4.972656 16.5625 -3.703125 C 15.820312 -2.429688 14.804688 -1.457031 13.515625 -0.78125 C 12.222656 -0.101562 10.78125 0.234375 9.1875 0.234375 Z M 9.1875 -4.078125 C 10.144531 -4.078125 10.957031 -4.425781 11.625 -5.125 C 12.289062 -5.820312 12.625 -6.816406 12.625 -8.109375 C 12.625 -9.410156 12.296875 -10.410156 11.640625 -11.109375 C 10.992188 -11.804688 10.195312 -12.15625 9.25 -12.15625 C 8.28125 -12.15625 7.472656 -11.8125 6.828125 -11.125 C 6.191406 -10.4375 5.875 -9.429688 5.875 -8.109375 C 5.875 -6.816406 6.1875 -5.820312 6.8125 -5.125 C 7.445312 -4.425781 8.238281 -4.078125 9.1875 -4.078125 Z M 9.1875 -4.078125 "/></g></g></g><g fill="#608bc1" fill-opacity="1"><g transform="translate(236.183249, 320.303504)"><g><path d="M 22.515625 -16.40625 C 24.535156 -16.40625 26.140625 -15.796875 27.328125 -14.578125 C 28.523438 -13.359375 29.125 -11.660156 29.125 -9.484375 L 29.125 0 L 24.171875 0 L 24.171875 -8.8125 C 24.171875 -9.863281 23.894531 -10.675781 23.34375 -11.25 C 22.789062 -11.820312 22.03125 -12.109375 21.0625 -12.109375 C 20.09375 -12.109375 19.332031 -11.820312 18.78125 -11.25 C 18.226562 -10.675781 17.953125 -9.863281 17.953125 -8.8125 L 17.953125 0 L 13 0 L 13 -8.8125 C 13 -9.863281 12.722656 -10.675781 12.171875 -11.25 C 11.617188 -11.820312 10.859375 -12.109375 9.890625 -12.109375 C 8.921875 -12.109375 8.160156 -11.820312 7.609375 -11.25 C 7.054688 -10.675781 6.78125 -9.863281 6.78125 -8.8125 L 6.78125 0 L 1.796875 0 L 1.796875 -16.234375 L 6.78125 -16.234375 L 6.78125 -14.203125 C 7.28125 -14.878906 7.9375 -15.414062 8.75 -15.8125 C 9.570312 -16.207031 10.492188 -16.40625 11.515625 -16.40625 C 12.742188 -16.40625 13.835938 -16.144531 14.796875 -15.625 C 15.753906 -15.101562 16.503906 -14.359375 17.046875 -13.390625 C 17.609375 -14.273438 18.375 -15 19.34375 -15.5625 C 20.3125 -16.125 21.367188 -16.40625 22.515625 -16.40625 Z M 22.515625 -16.40625 "/></g></g></g></svg>